<?xml version="1.0" encoding="iso-8859-1"?>
<!-- Generator: Adobe Illustrator 19.0.0, SVG Export Plug-In . SVG Version: 6.00 Build 0)  -->
<svg version="1.1" id="Layer_1" xmlns="http://www.w3.org/2000/svg" xmlns:xlink="http://www.w3.org/1999/xlink" x="0px" y="0px"
	 viewBox="0 0 511.882 511.882" style="enable-background:new 0 0 511.882 511.882;" xml:space="preserve">
<g>
	<path style="fill:#434A54;" d="M53.334,490.559c-0.484,0-0.969-0.047-1.453-0.109c-5.842-0.797-9.919-6.171-9.123-11.997
		l7.279-53.301c0.797-5.826,6.186-9.903,12.013-9.123c5.827,0.812,9.919,6.187,9.123,12.029l-7.295,53.269
		C63.16,486.67,58.583,490.559,53.334,490.559z"/>
	<path style="fill:#434A54;" d="M458.553,511.882c-5.889,0-10.654-4.78-10.654-10.654v-66.219c0-5.89,4.766-10.67,10.654-10.67
		s10.67,4.78,10.67,10.67v66.219C469.223,507.102,464.442,511.882,458.553,511.882z"/>
	<path style="fill:#434A54;" d="M117.304,511.882c-5.89,0-10.669-4.78-10.669-10.654v-66.219c0-5.89,4.78-10.67,10.669-10.67
		s10.669,4.78,10.669,10.67v66.219C127.973,507.102,123.193,511.882,117.304,511.882z"/>
</g>
<path style="fill:#FFCE54;" d="M469.223,437.243c0,5.874-4.781,10.654-10.67,10.654h-341.25c-5.89,0-10.669-4.78-10.669-10.654
	V10.662c0-5.89,4.78-10.662,10.669-10.662h341.25c5.889,0,10.67,4.772,10.67,10.662V437.243z"/>
<polygon style="fill:#DA4453;" points="175.962,255.941 239.947,149.301 303.932,255.941 "/>
<polygon style="fill:#ED5564;" points="229.278,255.941 314.587,106.639 399.911,255.941 "/>
<g>
	<path style="fill:#434A54;" d="M330.583,341.265h-85.309c-5.889,0-10.669,4.765-10.669,10.654c0,5.889,4.78,10.653,10.669,10.653
		h85.309c5.89,0,10.67-4.765,10.67-10.653C341.253,346.03,336.472,341.265,330.583,341.265z"/>
	<path style="fill:#434A54;" d="M373.245,298.587H202.612c-5.889,0-10.654,4.78-10.654,10.686c0,5.873,4.765,10.653,10.654,10.653
		h170.633c5.889,0,10.67-4.78,10.67-10.653C383.915,303.368,379.133,298.587,373.245,298.587z"/>
</g>
<polygon style="fill:#F6BB42;" points="49.928,426.605 106.634,426.605 106.634,8.662 "/>
<g>
</g>
<g>
</g>
<g>
</g>
<g>
</g>
<g>
</g>
<g>
</g>
<g>
</g>
<g>
</g>
<g>
</g>
<g>
</g>
<g>
</g>
<g>
</g>
<g>
</g>
<g>
</g>
<g>
</g>
</svg>
