<?xml version="1.0" encoding="iso-8859-1"?>
<!-- Generator: Adobe Illustrator 19.0.0, SVG Export Plug-In . SVG Version: 6.00 Build 0)  -->
<svg version="1.1" id="Layer_1" xmlns="http://www.w3.org/2000/svg" xmlns:xlink="http://www.w3.org/1999/xlink" x="0px" y="0px"
	 viewBox="0 0 512.001 512.001" style="enable-background:new 0 0 512.001 512.001;" xml:space="preserve">
<path style="fill:#FFB14D;" d="M288.519,275.412l22.46,98.667l16.918,38.909l-54.434,46.269c-35.143,0-64.646,0-91.787,0
	c-30.755,0-57.983-15.024-74.814-38.104H47.627v-87.094L288.519,275.412z"/>
<path style="fill:#FF8C00;" d="M273.462,320.451v46.269c9.744,0,76.208,0,76.208,0v-46.269H273.462z"/>
<path style="fill:#E6E2E0;" d="M382.254,52.743l-196.3,196.311l128.395,128.395l65.467-56.738c0,0,34.218-46.106,36.547-45.299
	h0.011l94.27-94.28L382.254,52.743z"/>
<g>
	<path style="fill:#FF9E24;" d="M343.628,366.72h-70.165c-6.674,0-12.694,2.831-16.918,7.359c-3.854,4.137-6.216,9.678-6.216,15.775
		c0,12.769,10.364,23.134,23.134,23.134h70.165c12.78,0,23.134-10.365,23.134-23.134C366.762,377.072,356.408,366.72,343.628,366.72
		z"/>
	<path style="fill:#FF9E24;" d="M416.374,275.412h-0.011c-2.33-0.806-4.823-1.23-7.414-1.23H382.33
		c-12.77,0-23.134,10.353-23.134,23.134c0,11.943,9.057,21.774,20.674,23.004c0.805,0.087,1.633,0.131,2.46,0.131h26.618
		c12.78,0,23.134-10.365,23.134-23.134C432.083,287.136,425.508,278.493,416.374,275.412z"/>
</g>
<g>
	<path style="fill:#FF8C00;" d="M379.815,320.711c-1.154-0.173-2.33-0.26-3.526-0.26h-48.392c-12.77,0-17.462,10.952-17.462,23.733
		c0,12.77,4.692,22.536,17.462,22.536h48.392c12.78,0,23.134-10.365,23.134-23.134C399.423,332.001,390.92,322.409,379.815,320.711z
		"/>
	<path style="fill:#FF8C00;" d="M332.741,412.989h-59.279c-12.77,0-23.134,10.353-23.134,23.134
		c0,12.769,10.364,23.134,23.134,23.134c9.744,0,59.279,0,59.279,0c12.78,0,23.134-10.365,23.134-23.134
		C355.876,423.341,345.521,412.989,332.741,412.989z"/>
</g>
<path style="fill:#FF9E24;" d="M299.656,238.864c-9.036-9.036-23.679-9.036-32.715,0c-16.396,16.397-36.678,27.489-58.767,32.411
	c-8.601,1.927-17.473,2.907-26.498,2.907c-0.001,0-0.002,0-0.004,0c-30.761,0.003-57.981,15.015-74.81,38.104H47.627l0,0l0,0l0,0
	v84.406h57.813c42.141,0,55.845-30.735,76.241-76.241c0.007,0,0.013,0,0.02,0c22.062-0.002,43.461-4.247,63.271-12.378
	c20.216-8.274,38.767-20.576,54.683-36.494C308.692,262.543,308.692,247.9,299.656,238.864z"/>
<rect x="1.358" y="285.072" style="fill:#4C5870;" width="68.043" height="174.189"/>
<path d="M13.609,426.594c7.504,0,13.609-6.104,13.609-13.609c0-7.504-6.104-13.608-13.609-13.608S0,405.481,0,412.985
	C0,420.49,6.104,426.594,13.609,426.594z"/>
<path d="M508.812,173.436L380.424,45.048c-4.252-4.25-11.144-4.25-15.397,0L168.725,241.35c-2.041,2.042-3.189,4.811-3.189,7.698
	c0,2.887,1.147,5.656,3.189,7.698l6.497,6.497c-1.021,0.027-2.042,0.046-3.068,0.046c-31.04,0-60.597,14.144-80.162,38.104H70.764
	v-16.329c0-6.012-4.874-10.887-10.887-10.887H10.887C4.874,274.177,0,279.053,0,285.064s4.874,10.887,10.887,10.887h38.104v152.415
	H10.887C4.874,448.366,0,453.241,0,459.253c0,6.012,4.874,10.887,10.887,10.887h48.991c6.013,0,10.887-4.875,10.887-10.887v-27.218
	h21.229c19.564,23.96,49.12,38.104,80.162,38.104h146.217h15.731c18.759,0,34.021-15.262,34.021-34.021
	c0-6.424-1.792-12.438-4.899-17.569c9.48-6.045,15.786-16.646,15.786-28.699c0-4.827-1.017-9.418-2.837-13.582
	c14.195-4.093,24.611-17.192,24.611-32.687c0-4.318-0.816-8.446-2.291-12.249h0.93c18.759,0,34.021-15.262,34.021-34.021
	c0-9.149-3.637-17.46-9.533-23.581l84.897-84.897C513.064,184.581,513.064,177.688,508.812,173.436z M106.137,414.737
	c-2.049-2.812-5.319-4.474-8.799-4.474H70.764v-87.094h26.574c3.479,0,6.749-1.662,8.799-4.474
	c15.347-21.057,40.028-33.629,66.019-33.629c0.002,0,0.002,0,0.004,0c35.111,0,68.123-13.675,92.952-38.502
	c4.775-4.776,12.543-4.776,17.32,0c4.776,4.775,4.776,12.545,0,17.32c-29.455,29.456-68.618,45.678-110.275,45.679
	c-4.452,0-8.455,2.71-10.108,6.843l-21.774,54.434c-2.233,5.583,0.482,11.918,6.065,14.152c1.326,0.53,2.694,0.782,4.04,0.782
	c4.32-0.001,8.409-2.59,10.112-6.847l19.098-47.743c18.382-0.751,36.265-4.292,53.166-10.406l35.052,35.051h-8.766
	c-6.013,0-10.887,4.875-10.887,10.887c0,6.012,4.874,10.887,10.887,10.887h27.602c-1.474,3.803-2.291,7.931-2.291,12.249
	c0,4.317,0.817,8.445,2.291,12.248h-27.602c-6.013,0-10.887,4.875-10.887,10.887c0,6.012,4.874,10.887,10.887,10.887h27.601
	c-1.473,3.803-2.29,7.93-2.29,12.247c0,4.318,0.817,8.445,2.291,12.248H172.155C146.163,448.366,121.483,435.794,106.137,414.737z
	 M357.239,389.851c0,6.753-5.495,12.248-12.248,12.248h-10.844c-0.015,0-0.028-0.001-0.042-0.001h-15.731c-0.005,0-0.01,0-0.014,0
	c-6.747-0.008-12.234-5.498-12.234-12.247c0-6.753,5.495-12.248,12.248-12.248h21.774h4.845
	C351.744,377.603,357.239,383.098,357.239,389.851z M334.104,448.366h-15.731c-6.753,0-12.248-5.495-12.248-12.248
	c0-6.745,5.483-12.235,12.226-12.247h0.022h15.753c6.742,0.012,12.226,5.501,12.226,12.247
	C346.352,442.872,340.857,448.366,334.104,448.366z M366.765,355.83h-21.774h-4.845c-6.753,0-12.248-5.495-12.248-12.248
	s5.495-12.248,12.248-12.248h26.618c6.753,0,12.248,5.495,12.248,12.248S373.518,355.83,366.765,355.83z M399.425,309.56h-26.618
	c-6.753,0-12.248-5.495-12.248-12.248s5.495-12.248,12.248-12.248h26.618c1.266,0,2.488,0.194,3.637,0.552
	c0.002,0,0.004,0.001,0.008,0.002c4.979,1.555,8.603,6.209,8.603,11.694C411.673,304.065,406.178,309.56,399.425,309.56z
	 M403.33,263.521c-1.282-0.147-2.583-0.231-3.905-0.231h-26.618c-18.759,0-34.021,15.262-34.021,34.021
	c0,4.318,0.816,8.445,2.291,12.249h-0.93c-18.759,0-34.021,15.262-34.021,34.021c0,4.827,1.018,9.418,2.836,13.582
	c-2.247,0.649-4.402,1.52-6.433,2.594l-48.378-48.378c15.908-8.29,30.63-19.055,43.677-32.102
	c6.425-6.425,9.964-14.969,9.964-24.058c0-9.087-3.538-17.63-9.964-24.057c-13.267-13.264-34.849-13.262-48.113,0
	c-13.485,13.487-29.866,23.023-47.739,28.041l-10.157-10.156L372.724,68.144l112.991,112.991L403.33,263.521z"/>
<path d="M321.841,262.812c2.126,2.125,4.912,3.189,7.698,3.189c2.786,0,5.572-1.064,7.698-3.189l57.717-57.717
	c4.251-4.251,4.251-11.145,0-15.397c-4.252-4.25-11.144-4.25-15.397,0l-57.717,57.717
	C317.589,251.667,317.589,258.56,321.841,262.812z"/>
<path d="M364.163,158.906c-4.252-4.25-11.144-4.25-15.397,0l-46.312,46.312c-4.251,4.251-4.251,11.145,0,15.397
	c2.126,2.125,4.912,3.189,7.698,3.189c2.786,0,5.572-1.064,7.698-3.189l46.312-46.312
	C368.414,170.051,368.414,163.157,364.163,158.906z"/>
<g>
</g>
<g>
</g>
<g>
</g>
<g>
</g>
<g>
</g>
<g>
</g>
<g>
</g>
<g>
</g>
<g>
</g>
<g>
</g>
<g>
</g>
<g>
</g>
<g>
</g>
<g>
</g>
<g>
</g>
</svg>
